<svg xmlns="http://www.w3.org/2000/svg" width="99" height="99" viewBox="0 0 1000 1000">
    <path fill="#FF6400" d="M896,0H105C47,0,0,47,0,105v789c0,59,47,106,105,106h790c57,0,105-47,105-105V105C1001,47,954,0,896,0z"/>
    <g fill="#FFFFFF">
        <path d="M236.361,589.223c0,7.234-24.917,20.898-57.07,20.898l0,0c-59.481,0-88.418-36.172-88.418-110.122 c0-72.342,31.349-112.532,88.418-112.532l0,0c11.253,0,24.918,3.215,37.778,9.646c8.842,4.019,19.292,10.45,19.292,14.468 c0,1.608,0,3.216-2.411,5.627l-12.861,16.88c-0.804,1.607-3.215,3.215-4.823,3.215c-2.411,0-4.822-1.607-8.842-4.823 c-6.43-4.019-14.468-9.646-25.721-9.646c-28.937,0-40.994,19.292-40.994,69.127c0,28.937,2.412,48.228,8.038,60.286 c6.43,14.469,16.88,21.701,32.956,21.701c11.253,0,20.899-4.018,27.329-7.232c4.019-2.412,8.038-4.02,10.449-4.02 s4.823,4.02,4.823,4.02l10.45,17.684C235.557,586.008,236.361,587.615,236.361,589.223z"/>
        <path d="M310.31,428.461v48.228h56.267c3.214,0,5.626,0,6.43,1.608c1.607,1.607,1.607,3.215,1.607,6.431v20.095 c0,6.432-2.412,8.039-8.038,8.039H310.31v57.873h70.734c6.43,0,8.038,1.607,8.038,8.039v20.096c0,6.43-1.608,8.039-8.038,8.039 H270.12c-3.215,0-5.626,0-6.43-1.609c-0.804-1.607-1.608-3.215-1.608-6.43l0.804-196.934c0-6.43,2.412-8.038,8.038-8.038h110.925 c5.626,0,9.646,0.804,9.646,4.823c0,1.607-8.038,24.918-8.038,24.918c-1.607,5.626-7.234,5.626-8.842,5.626l0,0L310.31,428.461z"/>
        <path d="M573.957,401.132l-0.803,196.933c0,6.432-1.607,8.039-8.039,8.039H542.61c-4.822,0-6.43-0.805-8.842-4.822 l-61.09-104.497c-8.842-14.468-13.664-24.114-16.879-34.563l0,0c0,7.234,0.804,16.879,0.804,25.721v110.122 c0,6.432-2.412,8.039-8.038,8.039H424.45c-6.431,0-8.038-1.607-8.038-8.039l0.804-196.933c0-6.43,2.411-7.234,8.038-7.234h28.133 c5.627,0,6.43,0.804,8.842,4.823l55.463,94.849c8.842,15.272,13.664,28.937,16.879,39.388c0-4.824-0.803-30.546-0.803-34.565 v-97.26c0-6.43,2.412-7.234,8.039-7.234h24.916C572.35,393.898,573.957,394.702,573.957,401.132z"/>
        <path d="M651.123,429.265v48.228h56.266c3.215,0,5.627,0,6.43,1.607c1.607,1.608,1.607,3.215,1.607,6.43v20.096 c0,5.627-1.607,8.037-8.037,8.037h-56.266v57.875h70.734c6.43,0,8.037,1.607,8.037,8.039v20.094c0,6.432-1.607,7.236-8.037,7.236 H610.932c-6.43,0-8.037-1.609-8.037-8.039l0.803-196.934c0-6.43,2.412-8.038,8.039-8.038H722.66c5.627,0,9.646,0,9.646,4.823 c0,1.607-8.037,24.918-8.037,24.918c-1.609,5.626-6.432,5.626-8.844,5.626H651.123z"/>
        <path d="M886.637,417.208c-14.469-18.487-35.367-28.133-62.697-28.133c-54.658,0-85.203,39.386-85.203,111.728 c0,36.172,7.234,64.307,22.508,83.598c14.469,18.488,35.367,28.133,62.695,28.133l0,0c54.658,0,85.203-39.387,85.203-110.926 C908.34,464.632,901.104,435.695,886.637,417.208z M823.94,423.639c7.234,0,12.861,2.411,18.488,7.234 c11.252,11.253,16.879,34.563,16.879,69.126c0,34.565-6.43,76.364-35.367,76.364c-28.936,0-34.563-41.799-34.563-76.364 C788.573,465.436,795.807,423.639,823.94,423.639L823.94,423.639z"/>
    </g>
    <g>
        <path fill="#FF0000" d="M715.922,736.171H990.11c5.418,0,9.891,4.393,9.891,9.876v98.739c0,5.451-4.473,9.891-9.891,9.891H715.922 c-5.484,0-9.891-4.439-9.891-9.891v-98.739C706.031,740.563,710.438,736.171,715.922,736.171z"/>
        <g fill="#FFFFFF">
            <path d="M750.303,763.092H783.4c8.154,0,14.65,2.365,19.537,7.125c4.439,4.31,6.645,9.487,6.645,15.6 c0,6.144-2.205,11.288-6.514,15.502c-4.891,4.761-11.451,7.126-19.668,7.126h-12.144v19.167h-20.92v-64.52H750.303z M771.256,778.819v13.926h8.669c2.43,0,4.326-0.69,5.709-2.074c1.383-1.382,2.106-3.021,2.106-4.854 c0-1.979-0.659-3.619-1.977-4.984c-1.32-1.352-3.282-2.013-5.839-2.013H771.256z"/>
            <path d="M879.195,827.611h-22.624l-10.454-20.969h-7.026v20.969h-20.812v-64.52h33.034 c8.635,0,15.47,2.204,20.487,6.626c4.469,3.956,6.706,8.717,6.706,14.33c0,4.132-1.354,8.007-4.006,11.594 c-2.671,3.57-6.336,6.063-11.001,7.543L879.195,827.611z M839.09,778.819v12.157h8.813c2.428,0,4.324-0.625,5.707-1.849 c1.386-1.204,2.106-2.619,2.106-4.262c0-1.542-0.721-2.958-2.106-4.212c-1.383-1.238-3.279-1.864-5.707-1.864h-8.813V778.819z"/>
            <path d="M955.729,794.518c0,12.059-3.604,21.113-10.855,27.161c-6.143,5.146-14.087,7.719-23.914,7.719 c-9.953,0-17.963-2.573-24.011-7.623c-7.219-6.078-10.901-15.132-10.901-27.257c0-11.387,3.617-19.991,10.807-25.716 c6.143-4.921,14.152-7.381,24.075-7.381c9.921,0,17.864,2.428,23.895,7.286C952.125,774.526,955.729,783.131,955.729,794.518z M920.959,813.67c4.101,0,7.19-1.849,9.297-5.629c1.896-3.346,2.846-7.879,2.846-13.523c0-4.891-0.918-8.831-2.784-11.949 c-2.168-3.65-5.258-5.453-9.358-5.453c-4.068,0-7.188,1.803-9.39,5.453c-1.914,3.15-2.864,7.156-2.864,11.949 c0,5.739,0.918,10.243,2.767,13.523C913.579,811.821,916.73,813.67,920.959,813.67z"/>
        </g>
    </g>
</svg>
